<svg xmlns="http://www.w3.org/2000/svg" viewBox="0 0 109 26" fill="none">
<path d="M3.50568 4.02572C5.60461 0.838623 11.3191 -0.450875 14.8552 0.138644C18.0031 0.663111 22.0242 2.80128 23.3778 5.76123C23.3778 5.76123 25.0771 10.1656 19.8696 9.73917C17.8243 9.57191 15.8164 9.06707 13.96 8.18433C10.9588 6.75649 7.50117 6.07303 4.25728 7.16121C3.46954 7.42551 2.72722 7.81267 2.06027 8.30926C1.67725 8.59422 1.319 8.91323 0.987598 9.25703C0.782137 9.46971 0.0078125 10.1418 0.0078125 10.4392C0.0078125 10.4392 0.591143 6.08644 5.33308 4.29829C8.81441 2.98505 12.0666 3.18016 15.459 4.78457C16.4295 5.24295 17.3919 5.73956 18.4243 6.05033C19.0231 6.22996 20.8845 6.82051 21.283 6.10298C21.6424 5.45667 20.5479 4.28796 20.0741 3.95862C16.6237 1.56133 12.5621 0.633183 8.47783 1.73581C6.75266 2.20143 4.93971 2.92929 3.50568 4.02572Z" fill="#5BEC72"/>
<path d="M25.0056 15.0566C25.0056 15.0566 23.1398 19.721 15.8324 18.5162C13.6086 18.1497 11.5654 17.4684 9.50676 16.5742C7.76712 15.8185 5.89119 15.1268 3.96366 15.418C2.55542 15.6307 1.23703 16.409 1.35059 18.0073C1.52507 20.4582 3.60748 22.4322 5.58147 23.6411C9.77518 26.2079 16.5035 26.4041 20.3152 22.9608C20.4041 22.8802 20.5084 22.7285 20.6137 22.6759C20.6137 22.6759 16.2216 24.8914 12.2179 24.2308C8.21416 23.5699 3.74478 21.5102 4.01631 20.2271C4.26306 19.0624 5.4297 19.1533 6.24739 19.6293C8.66946 21.0415 11.5809 21.9388 14.3943 22.014C16.6067 22.0729 18.9627 21.7663 20.9357 20.6586C23.1297 19.4268 24.1083 17.3012 25.0056 15.0566Z" fill="#5BEC72"/>
<path d="M0.555333 17.7836C0.555333 17.7836 -1.07693 14.2857 1.25533 11.72C3.58758 9.15445 6.85211 8.80446 9.41769 9.38779C11.9833 9.9711 15.0918 12.8082 19.7956 12.2249C24.4993 11.6416 24.3435 10.0867 24.421 9.42598C24.421 9.42598 26.1306 14.3238 20.8837 15.8777C15.637 17.4313 10.5843 14.6335 10.5843 14.6335C10.5843 14.6335 -0.143612 10.0083 0.556367 17.7813L0.555333 17.7836Z" fill="#5BEC72"/>
<path d="M36.087 19.0163C33.4042 19.0163 31.4705 17.5181 31.2266 14.7656H33.5435C33.7178 16.2638 34.763 16.9955 36.087 16.9955C37.289 16.9955 38.1252 16.4206 38.1252 15.5147C38.1252 12.9364 31.6098 14.4172 31.6098 9.97489C31.6098 7.91922 33.439 6.54297 35.7734 6.54297C38.404 6.54297 40.1112 7.93664 40.3725 10.271H38.073C37.8465 9.20837 36.9755 8.56379 35.7734 8.56379C34.6759 8.56379 33.9791 9.069 33.9791 9.87036C33.9791 12.1002 40.4945 10.6543 40.4945 15.3754C40.4945 17.5878 38.6653 19.0163 36.087 19.0163Z" fill="#1A1A1A"/>
<path d="M49.9845 19.0163C46.4132 19.0163 43.7827 16.3858 43.7827 12.7797C43.7827 9.17352 46.4132 6.54297 49.9845 6.54297C53.521 6.54297 56.1689 9.17352 56.1689 12.7797C56.1689 16.3858 53.521 19.0163 49.9845 19.0163ZM46.1519 12.7797C46.1519 15.2012 47.7372 16.9955 49.9845 16.9955C52.197 16.9955 53.7823 15.2012 53.7823 12.7797C53.7823 10.3581 52.197 8.56379 49.9845 8.56379C47.7372 8.56379 46.1519 10.3581 46.1519 12.7797Z" fill="#1A1A1A"/>
<path d="M65.5295 19.0163C62.0976 19.0163 59.4496 16.7342 59.4496 12.7797C59.4496 8.84253 62.0454 6.54297 65.5295 6.54297C68.4911 6.54297 70.5816 8.38958 70.8081 10.9505H68.4388C68.2298 9.53936 67.08 8.56379 65.5295 8.56379C63.3868 8.56379 61.8189 10.1143 61.8189 12.7797C61.8189 15.445 63.4042 16.9955 65.5295 16.9955C67.0626 16.9955 68.2646 15.9503 68.4911 14.5392H70.8603C70.5816 17.0652 68.5434 19.0163 65.5295 19.0163Z" fill="#1A1A1A"/>
<path d="M74.482 18.877V6.68234H76.8512V11.5428L81.4852 6.68234H84.6209L79.9173 11.5602L85.0739 18.877H82.1646L78.3146 13.2152L76.8686 14.7308V18.877H74.482Z" fill="#1A1A1A"/>
<path d="M88.0049 18.877V6.68234H96.2799V8.70316H90.3742V11.5253H95.1475V13.5462H90.3742V16.8561H96.3496V18.877H88.0049Z" fill="#1A1A1A"/>
<path d="M102.92 18.877V8.70316H99.2444V6.68234H108.948V8.70316H105.289V18.877H102.92Z" fill="#1A1A1A"/>
</svg>
