<svg xmlns="http://www.w3.org/2000/svg" id="Layer_2" viewBox="0 0 512.91 107.55"><defs><style>.cls-1{fill:#231f20;}</style></defs><g id="Layer_1-2"><path class="cls-1" d="m169.53,42.04c-9.61-2.27-18.29-2.58-18.29-9.51,0-5.17,5.99-7.85,13.12-7.85,7.99,0,13.14,3.05,14.63,9.85.02.1.11.18.22.18h14.44c.14,0,.25-.13.23-.26-2.06-16.12-14.31-21.54-29.11-21.54-17.36,0-28.62,7.44-28.62,20.77,0,10.75,6.51,15.4,19.94,18.6,12.92,3.1,24.9,4.03,24.9,13.54,0,4.96-4.13,10.13-14.46,10.13-9.64,0-15.72-4.48-17.02-13.03-.02-.11-.11-.19-.22-.19h-15.37c-.13,0-.24.12-.23.25,1.25,15.45,13.41,24.65,32.74,24.65,20.87,0,29.76-9.92,29.76-23.25s-7.03-17.77-26.66-22.32Z"></path><path class="cls-1" d="m252.58,71.35l-8.21-35.43c-.02-.1-.12-.18-.22-.18h-15.35c-.11,0-.2.07-.22.17l-8.31,35.44c-.05.23-.39.23-.44,0l-7.91-35.44c-.02-.1-.11-.18-.22-.18h-13.88c-.15,0-.26.14-.22.29l13.93,50.18c.03.1.12.17.22.17h15.56c.1,0,.19-.07.22-.17l8.73-35.41c.06-.23.38-.23.44,0l8.63,35.4c.02.1.12.17.22.17h15.56c.1,0,.19-.07.22-.16l14.23-50.18c.04-.14-.07-.29-.22-.29h-14.19c-.11,0-.2.07-.22.18l-7.91,35.43c-.05.23-.39.24-.44,0Z"></path><path class="cls-1" d="m325.65,56.41c0-19.53-14.88-21.7-23.25-21.7-10.06,0-21.03,3.16-23.21,16.47-.02.14.09.27.23.27h13.49c.11,0,.2-.08.22-.19.83-5.41,6.52-6.21,9.69-6.21,4.86,0,9.2,1.86,9.2,8.06v1.03l-8.37.41c-14.28.68-25,3.92-26.23,14.53-1.06,9.19,6,17.27,15.21,18.17,11.1,1.09,16.28-3.82,18.91-6.94.13-.16.39-.07.4.14.09,2.01.2,4.07.46,5.74.02.11.11.19.23.19h13.79c.14,0,.25-.12.22-.26-.78-4.2-.98-9.55-.98-14.2v-15.5Zm-13.54,8.16c0,9.51-7.65,12.3-12.92,12.3s-8.16-2.48-8.16-5.99c0-5.48,6.92-6.82,15.4-7.23l5.68-.31v1.24Z"></path><path class="cls-1" d="m362.74,34.61c-7.33,0-12.25,3.14-14.78,6.89-.13.19-.41.11-.41-.12v-5.4c0-.12-.1-.23-.23-.23h-13.5c-.12,0-.23.1-.23.23v71.36c0,.12.1.23.23.23h13.5c.12,0,.23-.1.23-.23v-26.55c0-.22.28-.31.41-.13,2.75,3.77,7.42,6.86,15.09,6.86,12.92,0,21.8-10.75,21.8-26.45s-8.99-26.45-22.11-26.45Zm-3.82,42.57c-7.85,0-11.88-6.92-11.88-15.6s4.03-15.6,11.88-15.6,11.99,6.92,11.99,15.6-4.13,15.6-11.99,15.6Z"></path><path class="cls-1" d="m454.29,14.56h-16.85c-.06,0-.13.03-.17.08l-30.23,33.69c-.14.15-.39.06-.39-.15V14.79c0-.12-.1-.23-.23-.23h-13.91c-.12,0-.23.1-.23.23v71.36c0,.12.1.23.23.23h13.91c.13,0,.23-.1.23-.23l-.2-19.42c0-.06.02-.11.06-.16l9.46-10.06c.1-.1.27-.09.35.02l21.16,29.75c.04.06.11.1.18.1h17.22c.18,0,.29-.21.18-.36l-28.67-40c-.06-.09-.06-.21.02-.28l28.05-30.79c.13-.15.03-.38-.17-.38Z"></path><rect class="cls-1" x="458.31" y="35.69" width="13.95" height="50.68" rx=".23" ry=".23"></rect><path class="cls-1" d="m499.33,70.05v-23.9c0-.12-.1-.23-.23-.23h-6.43c-.12,0-.23-.1-.23-.23v-9.78c0-.12.1-.23.23-.23h6.43c.12,0,.23-.1.23-.23v-14.48c0-.12-.1-.23-.23-.23h-13.5c-.12,0-.23.1-.23.23v14.48c0,.12-.1.23-.23.23h-8.02c-.12,0-.23.1-.23.23v9.73c0,.12.1.23.23.23h8.02c.12,0,.23.1.23.23v27.26c0,8.37,5.37,13.02,12.4,13.02h14.76c.12,0,.23-.1.23-.23v-10.5c0-.12-.1-.23-.23-.23h-8.14c-4.03,0-5.06-1.14-5.06-5.37Z"></path><rect class="cls-1" x="458.31" y="14.56" width="13.95" height="10.95" rx=".23" ry=".23"></rect><rect class="cls-1" x="502.68" y="35.69" width="10.23" height="10.23" rx=".23" ry=".23"></rect><path class="cls-1" d="m28.88,0C13.03,0,.13,12.83,0,28.65c0,.13.1.23.23.23h14.05c.12,0,.22-.1.22-.22.12-7.83,6.53-14.17,14.38-14.17h57.89c.12,0,.23-.1.23-.23V.23c0-.12-.1-.23-.23-.23H28.88Z"></path><path class="cls-1" d="m14.73,43.38h57.54c.12,0,.23.1.23.23v14.05c0,.12-.1.23-.23.23H14.73c-.12,0-.23-.1-.23-.23v-14.05c0-.12-.1-.23-.23-.23H.23c-.12,0-.23.1-.23.23v28.55c0,.12.1.23.23.23h72.04c.13,0,.23.11.23.24-.13,7.82-6.53,14.15-14.38,14.15H.23c-.12,0-.23.1-.23.23v14.05c0,.12.1.23.23.23h57.89c15.85,0,28.76-12.83,28.88-28.65,0-.13-.1-.23-.23-.23h-14.04c-.12,0-.23-.1-.23-.23v-14.05c0-.12.1-.23.23-.23h14.05c.12,0,.23-.1.23-.23v-28.55c0-.12-.1-.23-.23-.23H14.73c-.12,0-.23.1-.23.23v14.05c0,.12.1.23.23.23Z"></path></g></svg>