<svg fill="none" height="48" viewBox="0 0 160 48" width="160" xmlns="http://www.w3.org/2000/svg" xmlns:xlink="http://www.w3.org/1999/xlink"><filter id="a" color-interpolation-filters="sRGB" filterUnits="userSpaceOnUse" height="45.9913" width="30.0132" x=".45166" y=".505859"><feFlood flood-opacity="0" result="BackgroundImageFix"/><feBlend in="SourceGraphic" in2="BackgroundImageFix" mode="normal" result="shape"/><feColorMatrix in="SourceAlpha" result="hardAlpha" type="matrix" values="0 0 0 0 0 0 0 0 0 0 0 0 0 0 0 0 0 0 127 0"/><feOffset dy=".602158"/><feGaussianBlur stdDeviation="1.70537"/><feComposite in2="hardAlpha" k2="-1" k3="1" operator="arithmetic"/><feColorMatrix type="matrix" values="0 0 0 0 0.98 0 0 0 0 1 0 0 0 0 0 0 0 0 0.3 0"/><feBlend in2="shape" mode="normal" result="effect1_innerShadow_3809_4039"/></filter><linearGradient id="b" gradientUnits="userSpaceOnUse" x1="24.0059" x2="-.02233" y1="1.34493" y2="48.7725"><stop offset=".0520833" stop-color="#ffc21b"/><stop offset=".234375" stop-color="#b1a5b9"/><stop offset=".385417" stop-color="#f46fc8"/><stop offset=".796875" stop-color="#ff5f25"/><stop offset="1" stop-color="#6d05f3"/></linearGradient><g filter="url(#a)"><path d="m30.4331 15.9532c.0946-7.83385.1418-11.75078-2.3527-13.94376-2.4945-2.19299-6.3673-1.63911-14.1128-.53135l-10.24806 1.46568c-1.96565.28112-3.384415 2.02643-3.26051 4.01096.144812 2.31938 2.30893 3.97447 4.58125 3.50357l6.52702-1.35249c2.3463-.48619 3.5195-.72928 4.0268-.41982.4688.28604.7452.80476.7213 1.35361-.0259.5937-.8816 1.4325-2.593 3.1101l-5.97875 5.8606c-1.41236 1.3845-2.11853 2.0767-2.46133 2.6886-1.25658 2.2432-.56544 5.0794 1.58272 6.4951.58602.3861 1.53172.6769 3.42316 1.2583.5917.1819.8875.2729 1.0689.393.6654.4409.8723 1.3244.4716 2.0142-.1092.188-.334.4006-.7835.8256l-6.45244 6.1003c-1.71473 1.6212-1.71535 4.3533-.00137 5.9796 1.76115 1.671 4.57502 1.4625 6.06681-.4495l7.033-9.0139c2.1548-2.7617 3.2322-4.1426 3.155-5.5455-.0285-.5178-.1641-1.0242-.3981-1.487-.6342-1.2541-2.2578-1.9134-5.5049-3.2319-1.1511-.4673-1.7266-.701-1.9258-1.1379-.0732-.1604-.1103-.3349-.1088-.5112.0042-.4799.4349-.927 1.2963-1.8211l5.3635-5.5669c1.3785-1.4308 2.0677-2.1462 2.6022-2.2122.5812-.0718 1.1524.1965 1.4691.6901.2913.4539.1836 1.4425-.0318 3.4197l-.7267 6.6718c-.2514 2.3076 1.6381 4.2863 3.9521 4.1388 1.946-.1241 3.4667-1.7271 3.4902-3.6792z" fill="url(#b)"/></g><path d="m40.2417 10.8296c.855 0 1.9664.171 3.4626.171 2.0091 0 3.1633-.171 3.6335-.171.3848 0 .855.171.855.6412 0 .5557-.5557.5557-1.1542.684-.5557.1282-1.1114.2565-1.1114.8977 0 .4702.5557 1.9236 1.6671 4.6168l1.5389 3.719c.1283.2565.4275.9832.7268 1.5389.1282.2565.2564.513.4702.513.2137 0 .2992-.171.4275-.342.1282-.2137.8549-1.7954 2.1374-4.6167 1.4534-3.2061 1.9664-4.7878 1.9664-5.3435 0-.7267-.855-.8122-1.4107-.9405-.6412-.1282-1.1115-.2564-1.1115-.6412 0-.4702.2565-.7267.8977-.7267.855 0 1.71.171 2.6077.171 1.1969 0 1.9664-.171 2.3511-.171.513 0 .5985.2138.5985.5985 0 .5984-.171.5557-.9832.8122-.9405.342-1.4962 1.5389-1.9237 2.5221-1.1969 2.5221-3.4626 7.6091-3.7618 8.2931-.2137.513-1.1114 2.0519-1.1114 2.9923v8.8916c0 1.1542.4702 1.6244 1.4106 1.7526.5985.0855 1.3252.0855 1.3252.6413 0 .5129-.2565.5984-1.0687.5984s-1.7526-.171-3.5053-.171c-1.8382 0-3.0351.171-4.0183.171-.8122 0-.9405-.171-.9405-.5557 0-.5557.8978-.684 1.71-.8122.8549-.171 1.1542-.4275 1.1542-1.8809v-8.3786c0-.3847-.1283-.9404-.4275-1.6244l-4.1038-9.5328c-.8977-2.1374-1.4107-2.8213-2.2229-2.9923-.9405-.2137-.9832-.342-.9832-.5985 0-.4702.2992-.7267.8977-.7267zm21.3051-.5985c1.1542 0 2.0947.8977 2.0947 2.5649 0 1.5817-.8977 2.5221-2.0947 2.5221-1.1542 0-2.0519-.9404-2.0519-2.5221 0-1.6672.9405-2.5649 2.0519-2.5649zm1.4107 7.6519c.2992 0 .342.2565.342.5557v16.3297c0 1.4107.2565 1.6672 1.4534 1.9664.8122.2137 1.026.342 1.026.684 0 .3419-.171.5129-.7268.5129-.6412 0-1.7099-.171-3.548-.171-1.7099 0-3.1206.171-3.5054.171-.5557 0-.6839-.2565-.6839-.5129 0-.4703.3847-.6413.9832-.7268 1.1969-.2137 1.4107-.4702 1.4107-1.7526v-12.3114c0-.9404-.3848-1.1542-.855-1.3679-.5985-.2565-1.3252-.171-1.3252-.7267 0-.2993.2993-.4703.7695-.6412 1.6671-.5558 2.8213-1.0687 3.8045-1.5817.4275-.2138.684-.4275.855-.4275zm11.045 0c3.4198 0 5.8992 2.5221 5.8992 6.9252 0 2.0518 0 2.5221-1.1115 2.5221h-7.6518c-.6413 0-.9832.2992-.9832 1.0259 0 4.2748 1.8809 7.7801 4.8305 7.7801 3.9755 0 3.719-3.7618 4.4885-3.7618.342 0 .4275.2138.4275.5985 0 2.1801-2.1374 5.3435-5.771 5.3435-4.9587 0-7.8228-4.1038-7.8228-9.7893 0-6.4122 3.1205-10.6442 7.6946-10.6442zm-3.7618 7.0534c0 .9832.2564 1.0687 1.6244 1.0687.8122 0 1.7526-.0855 2.6503-.2565 1.8382-.3847 2.2657-.8122 2.2657-2.5649 0-2.5648-1.1542-4.061-2.8641-4.061-2.0092 0-3.6763 2.6504-3.6763 5.8137zm16.3894-17.31288c.2992 0 .2992.47023.2992.72672v26.97386c0 1.026.6413 1.0687 1.2825 1.2825.6839.2137 1.3252.2564 1.3252.7694 0 .342-.2993.5557-.6413.5557-.171 0-1.2824-.171-3.6763-.171-2.2656 0-3.3343.171-3.548.171-.342 0-.7268-.0855-.7268-.5557 0-.342.342-.5985.9405-.684.5985-.0854 1.4534-.2564 1.4534-1.4534v-23.4685c0-.855-.4275-.9832-.9404-1.1115-.7695-.171-1.197-.171-1.197-.6412 0-.38473.2138-.47022.8977-.68396 3.9328-1.23969 4.1038-1.70992 4.5313-1.70992zm17.4569 0c.171 0 .214.25649.214.64122v26.41816c0 .855.085 1.2824.385 1.2824.726 0 1.41-1.8809 1.667-1.8809.214 0 .385.2993.385.9832 0 .8977-.257 1.4962-.727 1.7099l-2.18.9405c-.983.4275-1.625.5985-1.924.5985-.898 0-.641-2.2657-1.111-2.2657-.214 0-.599.6412-1.6248 1.368-.9832.7267-1.7954.8977-2.6931.8977-4.1038 0-6.4549-3.7191-6.4549-9.9175 0-5.771 3.1206-10.516 7.1816-10.516.4703 0 .9405.0428 1.368.171.8549.2137 1.8382 1.0259 1.9662 1.0259.171 0 .214-.0855.214-.2137v-7.2244c0-1.1969-2.1802-.8977-2.1802-1.6244 0-.21374.0427-.42748.513-.55572l1.2392-.38473c1.753-.55572 3.549-1.45343 3.762-1.45343zm-10.1737 20.09148c0 5.8565 1.3679 8.4213 3.9328 8.4213 1.7526 0 2.9069-1.1114 2.9069-2.4366v-10.8579c0-2.0092-1.2398-3.5481-2.9497-3.5481-2.1801 0-3.89 2.9496-3.89 8.4213zm16.6317 5.7282c1.24 0 2.137 1.1542 2.137 2.3939 0 1.3252-.94 2.4366-2.137 2.4366s-2.095-1.1114-2.095-2.4366c0-1.3679.941-2.3939 2.095-2.3939zm4.533-15.1755c.855 0 2.266.171 3.634.171 1.325 0 2.18-.171 2.736-.171.641 0 .812.2138.812.5558 0 .2992-.299.4702-.641.5129-.513.0855-1.154.1283-1.154.684 0 .4275 2.693 5.8564 3.078 5.8564.341 0 1.025-1.3679 1.752-2.7358.684-1.2824 1.325-2.3511 1.325-2.9924 0-.4274-.513-.5984-1.026-.7267-.513-.1282-1.026-.171-1.026-.5984 0-.342.171-.5558.599-.5558.641 0 1.539.171 2.779.171 1.154 0 1.923-.171 2.393-.171.513 0 .684.2565.684.5985 0 .3847-.641.4702-1.282.6412-1.069.2993-1.881 1.368-3.249 3.8046-1.838 3.2488-2.137 3.4626-2.137 3.9755 0 .513.855 1.8382 1.881 3.6336.726 1.2397 1.539 2.7359 2.094 3.6336.898 1.4534 1.368 1.9664 2.052 2.1373.641.171 1.026.2993 1.026.7268 0 .3419-.299.5129-.769.5129-.385 0-1.326-.171-3.335-.171-1.795 0-2.864.171-3.249.171-.512 0-.94-.171-.94-.6839 0-.342.47-.4275.94-.5558.428-.1282.855-.2564.855-.7694 0-.2565-.384-1.0687-1.282-2.7359-.556-1.0259-.94-1.8381-1.282-2.4366-.257-.4702-.342-.7267-.599-.7267-.385 0-.598.513-1.624 2.4366-1.026 1.8809-1.368 2.7786-1.368 3.4198 0 .513.299.7268.897.855.385.0855.984.2137.984.5985 0 .3847-.171.5984-.984.5984-.384 0-1.196-.171-2.522-.171-1.325 0-2.052.171-2.394.171-.47 0-.812-.0427-.812-.5129 0-.2565.086-.513 1.112-.684.94-.171 1.539-.684 2.522-2.2229l2.094-3.3343c.556-.8977 1.326-2.2657 1.326-2.7786 0-.4703-.941-1.8809-2.18-3.9756l-2.181-3.6763c-.128-.171-.684-1.1969-1.41-1.3252-.642-.1282-1.112-.171-1.112-.5557s.257-.5985.983-.5985zm15.662 0c.983 0 2.223.171 3.42.171 1.026 0 2.479-.171 2.778-.171.599 0 .77.171.77.5558 0 .2992-.385.3847-.812.4702-.556.1282-1.197.171-1.197 1.0687 0 .6839.641 2.6076 1.282 4.7877.94 3.1634 2.095 6.7114 2.351 6.7114.214 0 .941-2.0091 1.881-5.2579 1.24-4.3603 1.582-5.3008 1.582-6.284 0-.5557-.599-.7694-1.154-.8549-.556-.0855-1.112-.1283-1.112-.5557 0-.4703.299-.6413.684-.6413.299 0 1.283.171 2.479.171.642 0 1.155-.171 1.839-.171.513 0 .684.171.684.5985 0 .3847-.342.4275-.727.513-.428.0855-.941.6412-1.496 2.3084l-2.266 6.7114c-1.24 3.6763-2.223 6.7969-2.907 8.9343-1.111 3.4198-1.496 5.3862-2.009 7.2243-.513 1.881-.855 2.5222-2.394 2.5222-1.752 0-2.094-.4703-2.094-2.3084 0-.8122.213-1.6672 1.795-1.7954.513-.0428 1.325-.0855 1.71-.513.513-.5985 1.624-3.5053 1.624-4.6168 0-.7267-.128-1.1969-.342-1.8809l-2.693-8.1648c-1.624-4.8733-2.308-6.9251-2.607-7.4381-.257-.4702-.471-.8977-1.197-.9832-.428-.0428-.642-.2138-.642-.5557 0-.342.129-.5558.77-.5558zm16.774-1.0687c.385 0 .47.1283.684.5985.299.6412.769.6412 2.052.6412 5.301 0 6.711-.0427 7.908-.0427.684 0 .77.2137.77.4275 0 .3419-.3.8977-.855 1.9236l-7.823 14.3633c-.171.2992-.47.9404-.47 1.1969 0 .171.042.2993 1.111.2993 3.719 0 5.429-.0855 6.37-2.6932.683-1.9236.555-2.8641 1.111-2.8641.427 0 .598.2993.598 1.2825 0 1.7954-.042 4.3175-.042 4.5312-.043.8977-.3.9832-.684.9832-.684 0-4.959-.0855-6.284-.0855-1.197 0-4.104.0855-6.07.0855-.385 0-.471-.171-.471-.4702 0-.3847.342-.8122.727-1.4962l7.695-14.4487c.384-.7267.726-1.2397.726-1.4535 0-.2137-.171-.3419-1.581-.3419-1.838 0-3.078.171-3.848.6839-.855.5558-1.325 1.7527-1.752 2.6504-.299.6412-.428 1.0259-.77 1.0259-.384 0-.47-.2564-.47-.6412 0-.3847.086-1.0259.299-2.5221.471-3.1206.642-3.6336 1.069-3.6336z" fill="#1A1A1A"/></svg>