<?xml version="1.0" encoding="UTF-8"?><svg id="Capa_1" xmlns="http://www.w3.org/2000/svg" viewBox="0 0 1748.82 359.71"><defs><style>.cls-1{fill:#ecece9;}.cls-2{fill:#fb4d01;}</style></defs><path class="cls-1" d="M233.55,90.67c-18.87,0-32.59,4.46-44.25,14.75l-20.59,17.83c-1.72,1.38-5.15,2.4-7.55.34-2.4-2.06-2.74-4.8-.69-7.55l10.98-16.47c1.72-2.4.35-5.49-2.74-5.49h-26.41c-3.08,0-5.49,2.4-5.49,5.49v160.55c0,3.08,2.4,5.49,5.49,5.49h27.44c3.08,0,5.49-2.4,5.49-5.49v-90.56c0-41.5,34.65-48.02,47.68-48.02,27.78,0,37.73,19.9,37.73,34.99v103.6c0,3.08,2.4,5.49,5.49,5.49h27.44c3.08,0,5.49-2.4,5.49-5.49v-107.03c0-38.42-25.05-62.43-65.52-62.43h0Z"/><path class="cls-1" d="M410.89,89.98c-53.17,0-87.13,32.59-87.13,76.84v24.36c0,46.65,33.96,78.56,87.13,78.56,46.99,0,79.93-24.36,83.36-57.29.35-3.43-2.06-5.83-5.49-5.83h-26.76c-2.4,0-4.46,1.38-5.15,3.77-3.43,10.98-19.55,27.44-45.97,27.44s-51.11-19.21-50.77-46.65l.35-30.53c.34-22.98,24.36-38.76,50.43-38.76,23.67,0,46.65,13.38,49.05,35.34h0c.2,2.54-1.55,4.83-4.05,5.31l-76.91,14.93c-3.08.69-5.49,3.43-5.49,6.86v.34c0,3.08,3.08,5.83,7.55,5.83h110.46c3.04,0,5.49-2.46,5.49-5.49v-21.61c0-40.82-35.34-73.41-86.1-73.41h0Z"/><path class="cls-1" d="M602.3,89.98c-42.88,0-79.93,25.04-79.93,57.97,0,2.74,2.4,4.8,5.49,4.8h27.78c2.74,0,4.8-2.06,5.15-4.8,2.74-15.09,20.93-26.07,40.48-26.07,23.32,0,39.11,14.41,39.11,39.11v29.85c0,30.53-22.64,45.97-50.77,45.97-21.95,0-34.65-8.23-34.65-21.61,0-11.67,6.18-21.61,31.56-27.44l36.7-9.95c3.77-1.03,5.15-4.12,4.46-7.55-.34-2.74-3.43-4.12-6.18-4.12h-38.07c-32.24,0-64.83,20.58-64.83,50.77v4.8c0,30.88,29.16,46.99,62.43,46.99,21.27,0,39.45-8.23,50.77-17.83l16.81-14.41c2.74-2.4,5.49-2.4,7.89,0,2.06,2.06,1.37,5.15-.35,7.55l-10.29,16.13c-1.72,2.4-.35,5.49,2.74,5.49h24.7c3.08,0,5.49-2.4,5.49-5.49v-103.94c0-39.79-28.47-66.2-76.5-66.2h.01Z"/><path class="cls-1" d="M826.98,94.1h-38.42c-13.37,0-26.41,8.23-35.68,16.13l-15.09,13.03c-1.72,1.38-4.81,2.4-6.86.69-2.4-1.72-3.43-5.15-1.37-7.89l10.98-16.47c1.72-2.4.35-5.49-2.74-5.49h-25.73c-3.08,0-5.49,2.4-5.49,5.49v160.55c0,3.08,2.4,5.49,5.49,5.49h28.13c3.08,0,5.49-2.4,5.49-5.49v-82.33c0-35.34,14.41-51.11,45.62-51.11h35.68c3.08,0,5.49-2.4,5.49-5.49v-21.61c0-3.08-2.4-5.49-5.49-5.49h0Z"/><path class="cls-2" d="M880.05,94.1h23.84c2.66,0,4.72,2.06,4.72,4.72v161.89c0,2.66-2.06,4.72-4.72,4.72h-23.84c-2.66,0-4.72-2.06-4.72-4.72V98.82c0-2.66,2.06-4.72,4.72-4.72Z"/><path class="cls-2" d="M1047.74,182.43v78.28c0,2.66-1.94,4.72-4.72,4.72h-23.23c-2.66,0-4.72-2.06-4.72-4.72v-71.99c0-16.45-7.14-25.41-20.93-25.41s-27.71,8.59-27.71,32.3v65.09c0,2.66-2.06,4.72-4.72,4.72h-23.35c-2.66,0-4.6-2.06-4.6-4.72v-114.7c0-2.66,1.94-4.72,4.6-4.72h17.79c3.03,0,4.48,1.21,5.57,3.27l4.36,8.59c.48.97,1.33,1.09,2.06.36,7.62-8.11,19.96-15.49,37.14-15.49,26.01,0,42.47,15.61,42.47,44.4Z"/><path class="cls-2" d="M1078.82,167.67h-17.91c-2.3,0-3.99-1.82-3.99-3.99v-18.03c0-2.18,1.69-3.99,3.99-3.99h8.59c7.5,0,12.34-4.36,12.34-12.95v-18.03c0-2.54,1.94-4.6,4.6-4.6h22.26c2.66,0,4.6,2.06,4.6,4.6v29.16c0,.97.85,1.82,1.82,1.82h25.29c2.3,0,4.11,1.81,4.11,3.99v18.03c0,2.18-1.82,3.99-4.11,3.99h-25.29c-.97,0-1.82.85-1.82,1.82v55.9c0,7.99,4.36,12.1,12.95,12.1h11.13c2.54,0,4.36,1.82,4.36,4.23v19.12c0,2.42-1.69,4.23-3.99,4.23h-17.42c-27.1,0-39.68-10.77-39.68-37.51v-58.08c0-.97-.85-1.82-1.82-1.82Z"/><path class="cls-2" d="M1266.96,210.26h-83.36c-.85,0-1.45.6-1.45,1.45,0,18.27,11.74,31.82,30.49,31.82,14.52,0,23.23-8.11,28.8-16.7,1.45-2.18,4.11-2.66,6.05-1.45l15.73,10.53c1.94,1.21,2.54,3.75,1.21,5.93-8.59,13.43-25.05,26.86-52.63,26.86-38.11,0-62.67-26.13-62.67-65.46s25.17-65.22,61.46-65.22,60.62,26.62,60.62,62.19v5.69c0,2.42-1.81,4.36-4.23,4.36ZM1184.69,188.48h52.51c.85,0,1.33-.48,1.33-1.33,0-15.24-11.37-25.77-27.71-25.77s-27.47,10.65-27.47,25.77c0,.85.48,1.33,1.33,1.33Z"/><path class="cls-2" d="M1400.41,182.43v78.28c0,2.66-1.94,4.72-4.72,4.72h-23.23c-2.66,0-4.72-2.06-4.72-4.72v-71.99c0-16.45-7.14-25.41-20.93-25.41s-27.71,8.59-27.71,32.3v65.09c0,2.66-2.06,4.72-4.72,4.72h-23.35c-2.66,0-4.6-2.06-4.6-4.72v-114.7c0-2.66,1.94-4.72,4.6-4.72h17.79c3.03,0,4.48,1.21,5.57,3.27l4.36,8.59c.48.97,1.33,1.09,2.06.36,7.62-8.11,19.96-15.49,37.14-15.49,26.01,0,42.47,15.61,42.47,44.4Z"/><path class="cls-2" d="M1431.49,167.67h-17.91c-2.3,0-3.99-1.82-3.99-3.99v-18.03c0-2.18,1.69-3.99,3.99-3.99h8.59c7.5,0,12.34-4.36,12.34-12.95v-18.03c0-2.54,1.94-4.6,4.6-4.6h22.26c2.66,0,4.6,2.06,4.6,4.6v29.16c0,.97.85,1.82,1.82,1.82h25.29c2.3,0,4.11,1.81,4.11,3.99v18.03c0,2.18-1.82,3.99-4.11,3.99h-25.29c-.97,0-1.82.85-1.82,1.82v55.9c0,7.99,4.36,12.1,12.95,12.1h11.13c2.54,0,4.36,1.82,4.36,4.23v19.12c0,2.42-1.69,4.23-3.99,4.23h-17.42c-27.1,0-39.68-10.77-39.68-37.51v-58.08c0-.97-.85-1.82-1.82-1.82Z"/><path class="cls-2" d="M1609.59,168.15c.85,2.06-.24,4.6-2.3,5.45l-17.67,7.02c-2.06.73-4.48-.24-5.32-2.3-3.14-8.11-12.34-16.7-26.5-16.7-12.22,0-20.57,5.57-20.57,12.95,0,5.57,4.11,9.68,12.34,11.49l26.25,6.05c25.65,5.81,36.18,18.15,36.18,36.54,0,27.47-24.8,39.93-53.72,39.93-31.09,0-48.88-15.37-55.66-34.6-.85-2.18.24-4.6,2.42-5.44l18.15-6.41c2.18-.73,4.6.36,5.45,2.54,4.84,13.43,15.24,20.33,29.52,20.33s22.62-6.05,22.62-14.88c0-6.41-5.2-11.49-14.52-13.67l-25.04-5.69c-22.39-5.08-34.85-16.45-34.85-35.21,0-22.99,22.38-37.51,51.54-37.51s46.34,15.85,51.66,30.13Z"/></svg>