<?xml version="1.0" encoding="UTF-8"?><svg id="Capa_1" xmlns="http://www.w3.org/2000/svg" viewBox="0 0 517 517"><defs><style>.cls-1{fill:#f2f2f1;}.cls-2{fill:#fb4d01;}</style></defs><rect class="cls-2" x="20.12" y="20.12" width="476.76" height="476.76" rx="52.66" ry="52.66"/><path class="cls-1" d="M368.27,119.01c-10.33,0-19.93,5.36-25.34,14.16l-58.32,86.58c-1.9,2.85-1.13,6.7,1.72,8.6,2.31,1.54,5.37,1.35,7.48-.46l57.4-49.79c.95-.86,2.42-.77,3.28.18.39.44.6,1,.6,1.58v155.88c0,1.29-1.04,2.32-2.33,2.32-.69,0-1.34-.3-1.78-.83l-173.52-207.7c-5.65-6.67-13.95-10.52-22.68-10.52h-6.06c-16.41,0-29.72,13.31-29.72,29.72v219.54c0,16.41,13.31,29.72,29.72,29.72,10.33,0,19.93-5.36,25.34-14.16l58.32-86.58c1.9-2.85,1.13-6.7-1.72-8.6-2.31-1.54-5.37-1.35-7.48.46l-57.4,49.79c-.95.86-2.42.77-3.28-.18-.39-.44-.6-1-.59-1.58v-155.92c0-1.29,1.04-2.32,2.33-2.32.68,0,1.34.3,1.78.83l173.49,207.74c5.65,6.67,13.95,10.52,22.68,10.52h6.06c16.41,0,29.73-13.29,29.74-29.7v-219.56c0-16.41-13.31-29.72-29.72-29.72h0Z"/></svg>
